<svg xmlns="http://www.w3.org/2000/svg" xmlns:xlink="http://www.w3.org/1999/xlink" width="1920" height="93" viewBox="0 0 1920 93"><defs><style>.a{fill:#c20000;}.b{clip-path:url(#a);}</style><clipPath id="a"><rect class="a" width="91" height="93" transform="translate(910 741)"/></clipPath></defs><g transform="translate(0 -741)"><rect class="a" width="923" height="4" transform="translate(997 788)"/><path class="a" d="M0,0H910V4H0Z" transform="translate(0 788)"/><g transform="translate(910 741)"><g class="b" transform="translate(-910 -741)"><path class="a" d="M391.66,538.433l-.211-.229-.349-.035-22.151.257L370.015,541l19.632-23.753,4.087-4.946-6.034,2-57.558,19.028,1.843,3.073,35.782-37.157,3.309-3.436-4.669.534-36.99,4.225,1.424,2.3,16.293-27.932,1.514-2.6-2.87.629L331.3,474.514l-2.949-1.31.553,3.74.117.126,17.269-1.536-1.354-1.966L328.3,501.285l-1.566,2.61,2.991-.311,37.031-3.849-1.361-2.9-35.987,36.949-5.29,5.432,7.133-2.358,57.556-19.034-1.946-2.949-19.207,24.113-1.93,2.424,3,.149,22.416-.261-.558-.264Z" transform="translate(336.725 707.236) rotate(-47)"/></g></g></g></svg>