<svg xmlns="http://www.w3.org/2000/svg" xmlns:xlink="http://www.w3.org/1999/xlink" width="474.014" height="73" viewBox="0 0 474.014 73"><defs><style>.a{fill:#c20000;}.b{clip-path:url(#a);}</style><clipPath id="a"><rect class="a" width="71" height="72" transform="translate(0 0)"/></clipPath></defs><g transform="translate(-501.235 -740.739)"><rect class="a" width="209" height="3" transform="translate(766.249 777.739)"/><path class="a" d="M0,0H196.923V3.117H0Z" transform="translate(501.235 777.629)"/><g transform="translate(698.249 740.739)"><g class="b"><path class="a" d="M52.635,51.515l-.164-.179-.272-.027-17.263.2.831,2L51.066,35l3.185-3.854-4.7,1.556L4.692,47.533l1.436,2.4L34.014,20.971l2.579-2.678-3.639.416L4.126,22l1.11,1.79,12.7-21.769L19.113,0,16.877.49,5.6,1.7,3.3.68l.431,2.914.091.1,13.459-1.2L16.225.962,3.259,22.564,2.039,24.6l2.331-.243,28.859-3L32.169,19.1,4.123,47.891,0,52.125l5.559-1.838L50.414,35.453l-1.517-2.3L33.928,51.947l-1.5,1.889,2.334.116,17.47-.2-.435-.206Z" transform="translate(-5.287 39.994) rotate(-47)"/></g></g></g></svg>