<?xml version="1.0" standalone="no"?>
<!DOCTYPE svg PUBLIC "-//W3C//DTD SVG 20010904//EN"
 "http://www.w3.org/TR/2001/REC-SVG-20010904/DTD/svg10.dtd">
<svg version="1.0" xmlns="http://www.w3.org/2000/svg"
 width="1242.000000pt" height="1427.000000pt" viewBox="0 0 1242.000000 1427.000000"
 preserveAspectRatio="xMidYMid meet">

<g transform="translate(0.000000,1427.000000) scale(0.100000,-0.100000)"
fill="#000000" stroke="none">
<path d="M5730 10699 c-132 -12 -221 -28 -398 -70 -730 -177 -1356 -671 -1689
-1333 -85 -168 -182 -429 -171 -457 3 -8 30 -22 59 -32 254 -87 379 -155 579
-318 113 -92 184 -160 267 -254 l61 -70 6 85 c42 529 319 961 784 1224 369
209 821 253 1226 121 401 -132 758 -449 916 -812 23 -54 47 -102 52 -108 10
-10 11 1380 0 1525 -4 69 -7 77 -39 107 -40 38 -308 172 -473 236 -185 72
-448 134 -672 157 -111 11 -382 11 -508 -1z"/>
<path d="M1964 8521 c3 -4 40 -11 83 -15 182 -17 346 -75 543 -194 104 -63
197 -141 318 -266 151 -157 280 -339 594 -834 173 -273 435 -669 500 -755 239
-316 453 -523 738 -712 438 -291 852 -417 1375 -419 408 -1 669 68 942 251
123 82 268 238 332 358 20 38 19 37 -36 -21 -172 -180 -361 -281 -658 -350
-104 -23 -147 -28 -321 -32 -256 -5 -370 8 -634 75 -369 93 -683 278 -927 545
-102 111 -211 253 -435 565 -536 745 -711 972 -913 1181 -208 217 -464 405
-683 503 -95 43 -282 97 -398 114 -106 16 -429 21 -420 6z"/>
<path d="M1240 4834 c-189 -41 -320 -161 -386 -354 -26 -75 -26 -254 -1 -325
73 -202 206 -321 402 -362 101 -20 195 -7 305 43 67 31 150 95 150 116 0 4
-20 21 -44 38 l-45 30 -47 -41 c-79 -68 -121 -81 -244 -77 -90 3 -112 8 -158
31 -143 75 -215 198 -215 372 -1 144 44 258 131 337 135 122 335 129 475 17
l38 -31 35 27 c20 15 38 34 41 42 14 37 -113 113 -233 139 -82 17 -118 17
-204 -2z"/>
<path d="M3335 4648 c-3 -7 -6 -47 -7 -88 -2 -58 -6 -75 -18 -77 -8 -1 -41 -5
-73 -8 l-58 -7 3 -41 3 -42 62 -3 c34 -2 66 -8 71 -15 6 -7 12 -106 14 -239 3
-212 4 -228 24 -255 38 -50 81 -68 165 -68 88 0 109 12 109 61 l0 34 -63 0
c-69 0 -102 16 -118 57 -14 39 -13 391 1 409 9 10 35 14 92 14 l79 0 -3 48 -3
47 -85 5 c-76 4 -85 7 -87 25 -1 11 -5 50 -8 88 l-7 67 -44 0 c-27 0 -46 -5
-49 -12z"/>
<path d="M2019 4468 c-75 -27 -119 -53 -119 -71 0 -8 11 -24 24 -36 l25 -23
55 27 c78 38 167 44 229 17 53 -24 87 -70 87 -119 0 -39 -2 -40 -145 -47 -167
-9 -267 -54 -306 -140 -73 -161 76 -307 270 -266 34 7 77 23 94 36 18 13 42
31 54 40 29 21 43 11 43 -32 0 -34 0 -34 45 -34 l45 0 0 244 c0 265 -4 291
-54 344 -50 55 -100 74 -196 79 -70 3 -97 0 -151 -19z m285 -334 c11 -4 16
-19 16 -49 0 -55 -14 -92 -48 -128 -43 -46 -74 -57 -157 -57 -115 0 -155 28
-155 108 0 86 81 127 257 131 39 0 78 -2 87 -5z"/>
<path d="M2765 4479 c-125 -30 -196 -163 -141 -267 27 -52 63 -70 240 -118 69
-18 116 -59 116 -99 0 -17 -12 -39 -34 -61 -33 -33 -37 -34 -109 -34 -69 0
-79 3 -128 36 -52 35 -53 35 -78 17 -42 -32 -48 -49 -26 -73 54 -59 177 -90
283 -71 162 29 247 143 191 257 -28 59 -87 97 -181 119 -131 30 -178 61 -178
118 1 41 18 63 63 82 53 22 88 19 152 -15 l56 -29 34 22 c19 12 35 27 35 34 0
6 -17 25 -37 42 -56 46 -161 62 -258 40z"/>
<path d="M4045 4472 c-22 -11 -55 -34 -73 -52 -36 -38 -49 -33 -54 20 -3 30
-7 35 -32 38 -15 2 -39 1 -52 -2 l-24 -6 0 -325 0 -325 49 0 c35 0 51 4 55 16
3 9 6 101 6 205 0 148 3 198 15 226 31 74 74 102 174 111 l66 7 0 50 0 50 -45
3 c-28 1 -60 -5 -85 -16z"/>
<path d="M4533 4476 c-60 -20 -104 -49 -157 -106 -80 -85 -107 -185 -81 -299
60 -258 384 -359 579 -180 33 30 66 73 83 107 24 50 27 69 27 147 0 75 -4 99
-26 145 -30 65 -109 142 -176 172 -59 27 -188 34 -249 14z m217 -106 c106 -54
151 -181 111 -311 -34 -109 -103 -159 -221 -159 -76 0 -130 22 -177 70 -92 94
-79 299 24 377 68 52 185 62 263 23z"/>
<path d="M1766 3223 c-4 -10 -1 -22 7 -28 7 -5 16 -17 20 -25 3 -9 6 -6 6 10
0 14 -6 33 -13 43 -13 17 -14 17 -20 0z"/>
<path d="M2229 3238 c-1 -2 -3 -111 -4 -243 -2 -155 0 -244 7 -252 8 -10 51
-13 157 -12 91 0 138 4 126 9 -11 5 -75 9 -142 9 -78 1 -124 5 -129 12 -11 19
-5 211 8 226 8 10 8 17 0 25 -13 13 -17 186 -4 204 4 7 50 12 117 13 60 1 111
4 114 6 2 3 -53 5 -122 5 -70 0 -128 -1 -128 -2z"/>
<path d="M3128 3233 c7 -3 16 -2 19 1 4 3 -2 6 -13 5 -11 0 -14 -3 -6 -6z"/>
<path d="M3421 3155 c-4 -116 -1 -419 5 -424 2 -2 4 54 4 126 0 115 2 132 18
138 16 6 16 7 0 19 -14 10 -18 33 -21 122 l-3 109 -3 -90z"/>
<path d="M3776 3128 c-6 -135 -6 -113 0 -273 8 -214 24 -125 24 137 0 250 -15
336 -24 136z"/>
<path d="M4110 3225 c0 -8 8 -15 18 -15 11 0 24 -12 32 -27 7 -16 15 -23 17
-16 7 21 -26 73 -47 73 -11 0 -20 -7 -20 -15z"/>
<path d="M4477 3233 c-10 -9 -9 -493 1 -493 4 0 6 60 5 132 -3 175 8 330 24
335 7 3 41 -40 78 -96 35 -56 67 -101 70 -101 9 0 5 19 -8 32 -7 7 -39 55 -72
105 -55 84 -79 106 -98 86z"/>
<path d="M4854 3035 c0 -115 2 -161 3 -102 2 59 2 154 0 210 -1 56 -3 8 -3
-108z"/>
<path d="M5293 3233 c9 -2 23 -2 30 0 6 3 -1 5 -18 5 -16 0 -22 -2 -12 -5z"/>
<path d="M5617 3233 c-4 -3 -7 -13 -7 -21 0 -12 3 -12 23 1 17 11 55 15 147
16 68 1 126 4 129 6 2 3 -61 5 -141 5 -79 0 -148 -3 -151 -7z"/>
<path d="M6584 3228 c-4 -7 -14 -23 -22 -35 -8 -13 -10 -23 -5 -23 11 0 47 59
40 66 -3 3 -8 -1 -13 -8z"/>
<path d="M6868 3233 c7 -3 16 -2 19 1 4 3 -2 6 -13 5 -11 0 -14 -3 -6 -6z"/>
<path d="M7304 3044 l1 -201 28 -41 c30 -46 85 -75 127 -69 22 3 21 4 -6 6
-43 2 -93 38 -118 86 -18 35 -22 64 -27 230 l-5 190 0 -201z"/>
<path d="M7648 3036 c-3 -197 -4 -206 -27 -236 -13 -18 -17 -30 -10 -28 7 2
23 25 36 49 20 42 22 60 23 229 1 119 -2 186 -9 188 -6 2 -11 -67 -13 -202z"/>
<path d="M7861 2990 c0 -155 3 -250 9 -250 6 0 10 47 10 115 0 129 -6 120 85
128 35 3 33 4 -12 5 -39 2 -55 7 -62 20 -15 28 -16 191 -2 205 7 7 51 15 99
18 l87 6 -107 1 -107 2 0 -250z"/>
<path d="M8974 2985 c0 -143 2 -200 3 -127 2 73 2 190 0 260 -1 70 -3 10 -3
-133z"/>
<path d="M9196 3232 c-10 -16 -6 -492 4 -492 6 0 10 50 10 119 0 73 4 122 10
126 7 4 8 11 1 18 -11 14 -19 197 -8 213 4 8 50 12 137 11 72 0 133 3 137 6 3
4 -59 7 -140 7 -80 0 -148 -4 -151 -8z"/>
<path d="M9619 3238 c-1 -2 -3 -60 -4 -130 -3 -94 0 -128 8 -128 8 0 8 -3 2
-8 -11 -8 -19 -184 -10 -219 5 -23 8 -23 155 -23 94 0 151 4 155 11 5 7 -37
10 -135 8 -92 -1 -144 2 -149 9 -5 8 -5 74 -1 247 0 6 -2 42 -6 82 -4 39 -4
87 0 105 l6 34 132 3 c73 1 134 4 137 6 2 3 -62 5 -142 5 -81 0 -147 -1 -148
-2z"/>
<path d="M1460 3221 c0 -5 5 -13 10 -16 6 -3 10 -2 10 4 0 5 -4 13 -10 16 -5
3 -10 2 -10 -4z"/>
<path d="M8540 3216 c0 -9 5 -16 10 -16 6 0 10 4 10 9 0 6 -4 13 -10 16 -5 3
-10 -1 -10 -9z"/>
<path d="M3180 3215 c0 -3 18 -23 40 -45 44 -44 51 -44 19 1 -19 27 -59 57
-59 44z"/>
<path d="M5125 3212 c-5 -4 -17 -16 -25 -27 -11 -15 -7 -14 15 5 17 14 32 26
34 28 2 1 0 2 -5 2 -5 0 -13 -4 -19 -8z"/>
<path d="M5375 3195 c17 -14 34 -25 39 -25 6 0 -5 11 -24 25 -43 32 -54 32
-15 0z"/>
<path d="M6768 3188 c-42 -43 -70 -110 -76 -185 -5 -60 0 -83 34 -158 16 -36
64 -89 72 -80 4 4 -3 14 -15 23 -34 26 -65 108 -70 181 -5 94 19 166 70 213
22 21 35 38 28 38 -6 0 -26 -14 -43 -32z"/>
<path d="M7032 3204 c10 -10 20 -15 24 -12 3 4 -5 12 -18 18 -22 12 -22 12 -6
-6z"/>
<path d="M8133 3200 c28 -23 52 -81 44 -111 -3 -11 -1 -17 5 -13 6 4 8 26 5
51 -5 46 -38 93 -65 93 -9 0 -5 -8 11 -20z"/>
<path d="M2939 3193 c-13 -16 -12 -17 4 -4 16 13 21 21 13 21 -2 0 -10 -8 -17
-17z"/>
<path d="M5610 3159 c0 -35 8 -35 15 -1 2 12 0 24 -6 27 -5 4 -9 -8 -9 -26z"/>
<path d="M2062 3160 c0 -14 2 -19 5 -12 2 6 2 18 0 25 -3 6 -5 1 -5 -13z"/>
<path d="M6260 3173 c0 -5 10 -19 21 -33 l20 -25 -16 33 c-15 30 -25 41 -25
25z"/>
<path d="M8540 2961 c0 -190 2 -220 16 -225 28 -11 284 -7 284 4 0 7 -46 10
-131 9 -74 0 -135 3 -141 9 -5 5 -10 97 -10 216 -1 113 -5 206 -10 206 -4 0
-8 -99 -8 -219z"/>
<path d="M1486 3155 c3 -11 8 -35 11 -53 3 -18 10 -35 14 -38 16 -9 9 30 -11
71 -11 22 -18 31 -14 20z"/>
<path d="M4082 3150 c0 -14 2 -19 5 -12 2 6 2 18 0 25 -3 6 -5 1 -5 -13z"/>
<path d="M7080 3169 c0 -3 9 -23 20 -46 26 -54 33 -130 20 -204 -12 -66 -30
-100 -70 -136 -14 -12 -20 -23 -13 -23 13 0 58 51 78 89 7 15 19 55 26 90 12
55 11 71 -4 129 -10 37 -27 76 -37 87 -11 11 -20 17 -20 14z"/>
<path d="M6532 3140 c-7 -11 -9 -20 -4 -20 4 0 13 9 20 20 7 11 9 20 4 20 -4
0 -13 -9 -20 -20z"/>
<path d="M2891 3123 c-10 -26 -10 -27 4 -9 8 11 15 23 15 28 0 15 -7 8 -19
-19z"/>
<path d="M4182 3140 c0 -8 8 -33 19 -55 10 -22 16 -29 13 -15 -10 38 -32 87
-32 70z"/>
<path d="M5051 3127 c-6 -16 -11 -34 -11 -42 0 -8 -4 -16 -10 -20 -25 -15 2
-223 31 -241 12 -7 12 -7 -7 73 -17 72 -12 196 8 220 5 7 8 18 5 25 -3 8 -9 1
-16 -15z"/>
<path d="M5420 3140 c0 -5 5 -10 11 -10 5 0 7 5 4 10 -3 6 -8 10 -11 10 -2 0
-4 -4 -4 -10z"/>
<path d="M1811 3125 c0 -11 6 -38 14 -60 18 -52 19 -24 1 35 -8 25 -15 36 -15
25z"/>
<path d="M2038 3087 c-3 -19 -2 -25 4 -19 6 6 8 18 6 28 -3 14 -5 12 -10 -9z"/>
<path d="M6300 3107 c0 -5 9 -20 20 -34 11 -14 20 -22 20 -17 -1 12 -39 61
-40 51z"/>
<path d="M6481 3054 c-18 -25 -30 -48 -28 -50 2 -3 12 7 21 21 9 14 23 36 32
50 28 43 9 27 -25 -21z"/>
<path d="M2866 3047 c-5 -22 -6 -64 -3 -95 5 -59 37 -146 44 -125 2 7 -2 22
-9 35 -7 13 -15 68 -18 123 -5 86 -7 95 -14 62z"/>
<path d="M5611 3036 c2 -50 12 -64 33 -47 7 6 16 8 19 4 4 -3 7 -1 7 5 0 7 -6
12 -14 12 -17 0 -25 11 -31 41 -8 41 -15 33 -14 -15z"/>
<path d="M8152 3040 c-7 -11 -9 -20 -4 -20 4 0 13 9 20 20 7 11 9 20 4 20 -4
0 -13 -9 -20 -20z"/>
<path d="M1521 3028 c-1 -16 4 -28 9 -28 12 0 12 8 0 35 -8 18 -9 17 -9 -7z"/>
<path d="M4040 3033 c0 -11 -3 -23 -7 -26 -5 -6 -43 -105 -43 -114 0 -2 11 4
24 13 15 9 23 21 19 30 -3 8 0 35 7 60 7 24 10 47 6 51 -3 3 -6 -3 -6 -14z"/>
<path d="M4221 3024 c0 -11 3 -14 6 -6 3 7 2 16 -1 19 -3 4 -6 -2 -5 -13z"/>
<path d="M6351 3024 c0 -11 3 -14 6 -6 3 7 2 16 -1 19 -3 4 -6 -2 -5 -13z"/>
<path d="M1835 3010 c3 -5 8 -10 11 -10 2 0 4 5 4 10 0 6 -5 10 -11 10 -5 0
-7 -4 -4 -10z"/>
<path d="M3498 3003 c18 -2 45 -2 60 0 15 2 0 4 -33 4 -33 0 -45 -2 -27 -4z"/>
<path d="M5680 3002 c0 -9 78 -7 87 2 4 3 -15 6 -40 6 -26 0 -47 -4 -47 -8z"/>
<path d="M5793 3003 c9 -2 25 -2 35 0 9 3 1 5 -18 5 -19 0 -27 -2 -17 -5z"/>
<path d="M5850 3000 c0 -5 5 -10 10 -10 6 0 10 5 10 10 0 6 -4 10 -10 10 -5 0
-10 -4 -10 -10z"/>
<path d="M9675 3000 c-3 -6 5 -10 19 -10 14 0 28 5 31 10 3 6 -5 10 -19 10
-14 0 -28 -4 -31 -10z"/>
<path d="M9801 3005 c10 -10 89 -14 89 -5 0 6 -21 10 -47 10 -25 0 -44 -2 -42
-5z"/>
<path d="M6376 2973 c14 -21 19 -53 22 -128 5 -138 22 -146 22 -12 0 81 4 114
16 135 16 27 16 27 -3 6 -16 -18 -22 -19 -36 -9 -9 7 -17 17 -17 24 0 6 -5 11
-11 11 -7 0 -4 -12 7 -27z"/>
<path d="M8070 2990 c-15 -5 -18 -8 -8 -9 9 -1 23 -4 32 -7 11 -4 16 -1 16 10
0 17 -3 18 -40 6z"/>
<path d="M1852 2975 c0 -11 3 -29 8 -40 11 -25 11 1 0 35 -6 20 -8 21 -8 5z"/>
<path d="M4239 2958 c-4 -27 0 -41 16 -56 11 -11 33 -54 48 -97 16 -42 31 -74
33 -72 6 6 -29 112 -60 179 -13 29 -26 60 -29 68 -2 8 -6 -1 -8 -22z"/>
<path d="M5303 2983 c15 -2 39 -2 55 0 15 2 2 4 -28 4 -30 0 -43 -2 -27 -4z"/>
<path d="M5410 2970 c27 -20 36 -19 27 5 -4 8 -17 15 -29 15 l-23 0 25 -20z"/>
<path d="M1543 2936 c4 -22 11 -44 16 -49 6 -6 6 7 0 34 -13 56 -24 66 -16 15z"/>
<path d="M2001 2954 c0 -11 3 -14 6 -6 3 7 2 16 -1 19 -3 4 -6 -2 -5 -13z"/>
<path d="M4690 2954 c0 -8 50 -97 61 -108 20 -22 7 16 -22 64 -28 46 -39 58
-39 44z"/>
<path d="M5612 2940 c0 -14 2 -19 5 -12 2 6 2 18 0 25 -3 6 -5 1 -5 -13z"/>
<path d="M8151 2926 c7 -15 15 -23 17 -16 3 7 -3 19 -13 28 -15 16 -16 15 -4
-12z"/>
<path d="M5426 2924 c-3 -9 -6 -26 -6 -38 0 -12 -9 -39 -20 -61 -11 -22 -20
-40 -20 -40 0 -1 14 0 30 3 l30 4 0 74 c0 75 -3 87 -14 58z"/>
<path d="M4118 2913 c7 -3 16 -2 19 1 4 3 -2 6 -13 5 -11 0 -14 -3 -6 -6z"/>
<path d="M4163 2913 c9 -2 25 -2 35 0 9 3 1 5 -18 5 -19 0 -27 -2 -17 -5z"/>
<path d="M3981 2864 c0 -11 3 -14 6 -6 3 7 2 16 -1 19 -3 4 -6 -2 -5 -13z"/>
<path d="M1560 2856 c0 -8 5 -18 10 -21 6 -3 10 1 10 9 0 8 -4 18 -10 21 -5 3
-10 -1 -10 -9z"/>
<path d="M5611 2854 c0 -11 3 -14 6 -6 3 7 2 16 -1 19 -3 4 -6 -2 -5 -13z"/>
<path d="M8173 2795 c0 -33 2 -45 4 -27 2 18 2 45 0 60 -2 15 -4 0 -4 -33z"/>
<path d="M3218 2800 c-14 -16 -23 -30 -19 -30 8 0 33 26 45 48 12 20 2 14 -26
-18z"/>
<path d="M4773 2812 c10 -10 17 -23 17 -29 0 -15 34 -43 53 -43 13 0 17 9 17
41 0 41 0 41 -18 19 l-17 -22 -28 26 c-32 30 -48 35 -24 8z"/>
<path d="M5610 2796 c0 -67 -3 -66 160 -66 89 0 151 4 155 10 4 6 -44 10 -137
10 -79 0 -149 4 -157 9 -9 6 -11 18 -7 34 3 14 2 29 -4 32 -6 4 -10 -8 -10
-29z"/>
<path d="M1951 2798 c-1 -23 -21 -33 -33 -17 -6 10 -8 7 -6 -10 2 -14 8 -26
15 -28 15 -5 36 33 30 55 -4 16 -5 16 -6 0z"/>
<path d="M2920 2803 c0 -19 75 -71 87 -59 3 3 -3 9 -13 12 -10 4 -31 18 -46
32 -16 14 -28 21 -28 15z"/>
<path d="M5090 2794 c16 -26 88 -64 120 -63 19 0 15 3 -16 13 -23 7 -59 26
-79 42 -30 23 -35 24 -25 8z"/>
<path d="M3946 2774 c-4 -14 -5 -28 -3 -31 3 -2 8 8 11 23 4 14 5 28 3 31 -3
2 -8 -8 -11 -23z"/>
<path d="M1612 2782 c-16 -2 -22 -8 -18 -19 3 -8 6 -17 6 -19 0 -12 21 -1 30
17 14 24 12 26 -18 21z"/>
<path d="M3160 2749 c0 -5 5 -7 10 -4 6 3 10 8 10 11 0 2 -4 4 -10 4 -5 0 -10
-5 -10 -11z"/>
<path d="M6817 2749 c6 -6 28 -12 49 -14 22 -1 28 0 14 2 -14 3 -29 9 -34 14
-6 5 -17 9 -25 9 -11 0 -12 -3 -4 -11z"/>
<path d="M5285 2740 l-30 -8 27 -1 c15 0 30 4 33 9 3 6 5 9 3 9 -2 -1 -16 -5
-33 -9z"/>
<path d="M7525 2740 c-28 -7 -28 -8 -5 -9 14 0 32 4 40 9 17 11 8 11 -35 0z"/>
<path d="M3033 2733 c9 -2 25 -2 35 0 9 3 1 5 -18 5 -19 0 -27 -2 -17 -5z"/>
<path d="M6958 2733 c6 -2 18 -2 25 0 6 3 1 5 -13 5 -14 0 -19 -2 -12 -5z"/>
</g>
</svg>
