<?xml version="1.0" standalone="no"?>
<!DOCTYPE svg PUBLIC "-//W3C//DTD SVG 20010904//EN"
 "http://www.w3.org/TR/2001/REC-SVG-20010904/DTD/svg10.dtd">
<svg version="1.0" xmlns="http://www.w3.org/2000/svg"
 width="249.000000pt" height="204.000000pt" viewBox="0 0 249.000000 204.000000"
 preserveAspectRatio="xMidYMid meet">

<g transform="translate(0.000000,204.000000) scale(0.100000,-0.100000)"
fill="#000000" stroke="none">
<path d="M1218 2010 c-198 -34 -386 -170 -470 -340 -49 -101 -54 -119 -31
-126 58 -20 111 -53 163 -100 l57 -54 7 40 c21 130 94 228 214 287 72 36 81
38 172 38 84 -1 102 -4 155 -30 74 -35 138 -94 176 -160 l29 -50 -2 200 -3
200 -75 37 c-120 59 -262 80 -392 58z"/>
<path d="M390 1461 c117 -39 177 -100 334 -339 138 -211 181 -263 274 -329
214 -153 506 -161 642 -18 l35 37 -52 -32 c-158 -98 -403 -68 -553 67 -28 25
-110 127 -183 227 -208 285 -321 381 -463 392 -40 3 -51 1 -34 -5z"/>
<path d="M115 540 c-88 -36 -99 -166 -19 -229 35 -27 103 -28 135 -2 33 26 18
36 -22 16 -66 -35 -139 15 -139 95 0 78 68 127 132 96 39 -20 60 -6 27 18 -25
17 -81 20 -114 6z"/>
<path d="M666 503 c-3 -3 -6 -15 -6 -25 0 -10 -7 -18 -15 -18 -8 0 -15 -4 -15
-10 0 -5 7 -10 15 -10 11 0 15 -11 15 -39 0 -69 11 -101 36 -107 34 -9 51 6
22 20 -20 10 -23 19 -23 66 0 49 2 55 23 58 30 5 28 22 -3 22 -18 0 -25 5 -25
19 0 21 -13 34 -24 24z"/>
<path d="M323 453 c-28 -11 -11 -23 25 -18 43 7 68 -6 59 -29 -4 -10 -18 -16
-37 -16 -48 0 -70 -16 -70 -51 0 -37 37 -58 74 -41 13 6 34 8 45 5 21 -5 22
-3 17 61 -2 37 -10 74 -17 82 -11 13 -70 18 -96 7z m87 -98 c0 -29 -32 -49
-66 -41 -31 8 -32 43 -1 56 43 17 67 12 67 -15z"/>
<path d="M497 442 c-9 -10 -17 -23 -17 -29 0 -15 28 -36 63 -48 40 -13 45 -32
13 -46 -20 -9 -29 -9 -41 1 -12 10 -19 10 -27 2 -8 -8 -4 -14 16 -22 15 -5 33
-10 39 -10 24 0 57 32 57 55 0 19 -9 27 -45 41 -58 22 -59 50 -2 48 48 -2 44
20 -4 24 -24 2 -40 -3 -52 -16z"/>
<path d="M786 444 c-3 -9 -6 -45 -6 -80 0 -49 3 -64 15 -64 10 0 15 15 17 58
3 53 5 58 35 72 18 8 33 18 33 23 0 12 -35 8 -49 -5 -11 -10 -14 -10 -18 0 -6
17 -20 15 -27 -4z"/>
<path d="M934 436 c-36 -30 -39 -86 -6 -118 33 -34 97 -31 128 5 70 82 -40
184 -122 113z m98 -13 c40 -36 13 -106 -42 -106 -54 0 -78 53 -44 101 18 26
60 29 86 5z"/>
</g>
</svg>
