<?xml version="1.0" encoding="UTF-8"?>
<svg xmlns="http://www.w3.org/2000/svg" xmlns:xlink="http://www.w3.org/1999/xlink" width="932pt" height="1070pt" viewBox="0 0 932 1070" version="1.1">
<g id="surface1">
<path style=" stroke:none;fill-rule:nonzero;fill:rgb(0%,0%,0%);fill-opacity:1;" d="M 437.71875 265.925781 C 427.441406 266.300781 412.511719 268.550781 399.835938 271.546875 C 394.210938 272.824219 386.03125 275.148438 384.457031 275.898438 C 383.632812 276.273438 378.90625 278.144531 373.957031 280.019531 C 342.375 292.089844 311.089844 315.933594 290.539062 343.523438 C 283.1875 353.417969 279.808594 358.515625 275.683594 366.238281 C 273.734375 369.910156 271.859375 373.285156 271.558594 373.734375 C 269.757812 376.210938 260.15625 401.324219 259.179688 406.125 C 258.65625 408.820312 258.65625 408.898438 265.933594 411.070312 C 288.511719 418.042969 305.316406 429.515625 328.570312 454.03125 L 334.195312 459.953125 L 334.722656 451.332031 C 335.921875 431.988281 340.648438 417.070312 350.925781 400.125 C 360.828125 383.855469 376.804688 369.011719 394.585938 359.640625 C 403.960938 354.691406 412.886719 351.46875 424.589844 348.769531 C 432.242188 347.046875 434.867188 346.820312 447.847656 346.820312 C 460.375 346.746094 463.597656 346.96875 470.425781 348.46875 C 488.28125 352.292969 503.582031 358.964844 516.859375 368.710938 C 533.0625 380.707031 548.59375 401.023438 555.496094 419.242188 C 556.246094 421.191406 557.070312 422.617188 557.445312 422.390625 C 557.820312 422.167969 558.121094 394.726562 558.121094 360.539062 C 558.121094 302.511719 558.042969 299.0625 556.769531 297.789062 C 552.945312 293.964844 527.664062 281.144531 517.234375 277.769531 C 515.210938 277.097656 512.808594 276.273438 511.984375 275.898438 C 507.707031 273.949219 498.480469 271.625 485.355469 269.074219 C 478.527344 267.726562 471.25 266.824219 460.972656 266.152344 C 450.695312 265.476562 448.519531 265.476562 437.71875 265.925781 Z M 437.71875 265.925781 "/>
<path style=" stroke:none;fill-rule:nonzero;fill:rgb(0%,0%,0%);fill-opacity:1;" d="M 139.90625 430.714844 L 134.652344 431.6875 L 140.207031 431.761719 C 143.207031 431.761719 147.933594 432.214844 150.707031 432.664062 C 153.40625 433.039062 158.058594 433.789062 160.910156 434.238281 C 167.0625 435.210938 177.039062 438.585938 183.414062 441.808594 C 205.320312 452.832031 221.296875 468.199219 239.75 495.863281 C 248.601562 509.058594 258.355469 524.128906 263.679688 532.527344 C 291.511719 576.757812 305.914062 596.402344 322.195312 612.746094 C 348.449219 638.984375 379.207031 657.277344 411.839844 665.824219 C 425.714844 669.425781 444.394531 671.75 459.847656 671.75 C 502.234375 671.675781 533.664062 657.203125 552.269531 629.164062 C 555.042969 624.890625 557.371094 621.066406 557.371094 620.691406 C 557.371094 619.34375 556.019531 620.09375 554.144531 622.417969 C 547.617188 630.890625 539.816406 637.1875 529.164062 642.433594 C 517.910156 648.058594 515.8125 648.734375 497.207031 652.929688 C 490.832031 654.429688 475.300781 655.40625 466.601562 654.878906 C 449.046875 653.980469 428.792969 649.558594 413.113281 643.335938 C 393.609375 635.539062 377.632812 624.890625 363.453125 610.195312 C 357.527344 604.050781 342.296875 584.480469 331.195312 568.664062 C 329.171875 565.8125 325.945312 561.390625 324.070312 558.839844 C 322.195312 556.367188 319.71875 552.917969 318.441406 551.117188 C 317.242188 549.394531 314.542969 545.644531 312.441406 542.871094 C 310.417969 540.023438 307.339844 535.824219 305.691406 533.425781 C 299.914062 525.253906 284.609375 504.859375 277.183594 495.566406 C 263.304688 478.246094 244.550781 460.628906 228.425781 449.90625 C 214.472656 440.535156 196.390625 433.5625 178.761719 430.714844 C 170.660156 429.363281 147.40625 429.363281 139.90625 430.714844 Z M 139.90625 430.714844 "/>
<path style=" stroke:none;fill-rule:nonzero;fill:rgb(0%,0%,0%);fill-opacity:1;" d="M 128.878906 433.113281 C 129.402344 433.339844 130.078125 433.261719 130.304688 433.039062 C 130.601562 432.8125 130.152344 432.589844 129.328125 432.664062 C 128.503906 432.664062 128.277344 432.886719 128.878906 433.113281 Z M 128.878906 433.113281 "/>
<path style=" stroke:none;fill-rule:nonzero;fill:rgb(0%,0%,0%);fill-opacity:1;" d="M 92.269531 706.910156 C 84.46875 708.710938 78.917969 711.632812 73.664062 716.808594 C 63.464844 726.851562 59.113281 743.046875 62.9375 756.84375 C 66.015625 767.789062 73.742188 777.910156 82.667969 782.40625 C 91.21875 786.757812 100.597656 787.878906 110.125 785.855469 C 116.875 784.355469 129.027344 776.710938 129.027344 773.9375 C 129.027344 773.109375 126.628906 770.9375 123.550781 768.988281 L 121.449219 767.636719 L 118.074219 770.710938 C 113.050781 775.359375 108.921875 776.859375 100.898438 776.859375 C 95.871094 776.933594 93.246094 776.558594 90.621094 775.511719 C 85.144531 773.261719 80.566406 769.664062 77.714844 765.3125 C 73.816406 759.464844 72.539062 754.894531 72.539062 747.097656 C 72.464844 733.375 78.992188 722.28125 89.792969 717.929688 C 95.496094 715.53125 104.421875 715.15625 109.449219 717.03125 C 112.597656 718.15625 117.550781 721.378906 118.601562 722.953125 C 119.351562 724.003906 121.527344 722.953125 124.902344 720.105469 L 127.902344 717.558594 L 125.425781 715.007812 C 121.976562 711.484375 117.023438 708.859375 110.125 707.0625 C 103.222656 705.1875 99.847656 705.1875 92.269531 706.910156 Z M 92.269531 706.910156 "/>
<path style=" stroke:none;fill-rule:nonzero;fill:rgb(0%,0%,0%);fill-opacity:1;" d="M 249.578125 720.179688 C 249.277344 720.480469 249.054688 723.554688 249.054688 727.003906 C 249.054688 730.378906 248.976562 733.226562 248.902344 733.300781 C 248.753906 733.300781 246.652344 733.449219 244.175781 733.675781 C 237.726562 734.199219 237.652344 734.199219 237.949219 738.25 L 238.175781 741.847656 L 243.425781 742.222656 L 248.679688 742.597656 L 249.054688 759.839844 C 249.503906 779.785156 249.730469 780.683594 256.105469 783.832031 C 262.632812 787.054688 273.058594 785.855469 273.058594 781.808594 C 273.058594 777.308594 272.535156 776.859375 267.355469 777.007812 C 259.179688 777.160156 258.207031 774.910156 258.128906 755.269531 C 258.054688 746.796875 258.28125 743.722656 259.03125 743.121094 C 259.554688 742.671875 262.707031 742.222656 265.933594 742.074219 L 271.933594 741.847656 L 272.160156 737.875 L 272.382812 733.976562 L 266.082031 733.976562 C 261.804688 733.976562 259.480469 733.675781 258.957031 733 C 258.503906 732.476562 258.054688 729.328125 257.90625 726.105469 L 257.679688 720.105469 L 253.929688 719.882812 C 251.828125 719.730469 249.878906 719.882812 249.578125 720.179688 Z M 249.578125 720.179688 "/>
<path style=" stroke:none;fill-rule:nonzero;fill:rgb(0%,0%,0%);fill-opacity:1;" d="M 152.507812 733.902344 C 147.40625 735.398438 141.78125 738.699219 141.78125 740.199219 C 141.78125 741.472656 145.679688 745.222656 146.957031 745.222656 C 147.480469 745.222656 148.683594 744.621094 149.65625 743.796875 C 151.90625 742.074219 159.710938 740.421875 163.085938 740.949219 C 169.386719 741.996094 173.8125 746.121094 173.210938 750.46875 C 172.910156 752.269531 172.6875 752.34375 165.410156 752.792969 C 161.285156 753.09375 156.257812 753.691406 154.15625 754.144531 C 142.53125 756.765625 136.679688 764.113281 138.703125 773.636719 C 139.753906 778.808594 142.832031 782.109375 148.457031 784.28125 C 155.660156 786.980469 165.183594 785.179688 170.585938 780.234375 C 171.785156 779.109375 172.988281 778.210938 173.363281 778.210938 C 173.664062 778.210938 174.113281 779.558594 174.414062 781.28125 L 174.9375 784.28125 L 178.386719 784.058594 L 181.914062 783.832031 L 182.140625 765.089844 C 182.289062 746.421875 182.289062 746.421875 180.414062 742.523438 C 176.210938 733.976562 164.734375 730.378906 152.507812 733.902344 Z M 173.289062 762.464844 C 174.488281 767.1875 171.261719 773.109375 166.234375 775.734375 C 163.308594 777.234375 154.984375 777.234375 151.457031 775.734375 C 145.832031 773.410156 146.054688 765.6875 151.832031 762.914062 C 155.808594 761.039062 160.160156 760.367188 166.910156 760.441406 C 172.613281 760.589844 172.835938 760.664062 173.289062 762.464844 Z M 173.289062 762.464844 "/>
<path style=" stroke:none;fill-rule:nonzero;fill:rgb(0%,0%,0%);fill-opacity:1;" d="M 208.019531 733.152344 C 203.96875 734.199219 200.066406 736.601562 197.742188 739.523438 C 195.867188 741.773438 195.417969 743.121094 195.191406 747.097656 C 194.589844 755.941406 198.191406 759.542969 210.421875 762.464844 C 219.648438 764.714844 222.722656 766.8125 222.796875 770.863281 C 222.796875 773.410156 219.046875 776.710938 215.820312 776.785156 C 213.347656 776.933594 209.59375 776.859375 208.09375 776.785156 C 207.570312 776.710938 205.394531 775.511719 203.21875 774.085938 L 199.316406 771.386719 L 196.617188 773.5625 C 195.117188 774.761719 193.839844 776.335938 193.691406 776.933594 C 193.015625 780.382812 203.96875 785.707031 211.546875 785.707031 C 216.121094 785.707031 222.871094 783.980469 226.023438 782.03125 C 231.125 778.882812 233.824219 771.988281 232.25 765.914062 C 230.972656 760.664062 225.125 757.140625 213.871094 754.519531 C 207.496094 753.09375 204.792969 750.917969 204.792969 747.171875 C 204.792969 741.996094 212.21875 739.222656 218.371094 742.148438 C 220.171875 742.972656 222.199219 744.097656 222.871094 744.546875 C 223.773438 745.222656 224.671875 744.996094 227.148438 743.347656 C 228.875 742.222656 230.300781 740.871094 230.300781 740.421875 C 230.300781 739 226.472656 735.699219 223.246094 734.351562 C 219.871094 732.925781 211.46875 732.25 208.019531 733.152344 Z M 208.019531 733.152344 "/>
<path style=" stroke:none;fill-rule:nonzero;fill:rgb(0%,0%,0%);fill-opacity:1;" d="M 305.765625 733 C 303.738281 733.527344 299.015625 736.601562 297.140625 738.550781 C 295.261719 740.574219 294.0625 739.824219 294.0625 736.523438 L 294.0625 733.902344 L 289.789062 734.125 L 285.4375 734.351562 L 285.4375 783.832031 L 289.710938 784.058594 L 293.914062 784.28125 L 294.214844 768.6875 C 294.4375 753.84375 294.511719 752.945312 296.3125 749.34375 C 298.714844 744.621094 301.566406 742.972656 308.542969 742.296875 L 313.941406 741.847656 L 314.167969 737.648438 C 314.390625 733.75 314.242188 733.375 312.667969 732.925781 C 310.714844 732.476562 307.941406 732.476562 305.765625 733 Z M 305.765625 733 "/>
<path style=" stroke:none;fill-rule:nonzero;fill:rgb(0%,0%,0%);fill-opacity:1;" d="M 340.273438 733.675781 C 331.644531 736.449219 324.820312 742.972656 322.195312 751.144531 C 320.394531 756.542969 320.992188 765.164062 323.394531 770.335938 C 328.871094 782.183594 343.347656 788.332031 356.027344 784.207031 C 376.054688 777.835938 381.382812 753.617188 365.851562 739.597656 C 363.304688 737.273438 359.925781 735.023438 357.902344 734.351562 C 352.800781 732.550781 344.699219 732.25 340.273438 733.675781 Z M 356.925781 743.273438 C 361.878906 746.347656 365.328125 752.867188 365.328125 759.089844 C 365.328125 763.066406 363.152344 769.0625 360.675781 771.910156 C 353.25 780.308594 337.796875 778.285156 332.546875 768.164062 C 331.945312 766.964844 331.195312 764.039062 331.046875 761.714844 C 330.222656 752.71875 333.671875 745.894531 340.875 742.449219 C 345.824219 740.125 352.5 740.421875 356.925781 743.273438 Z M 356.925781 743.273438 "/>
<path style=" stroke:none;fill-rule:nonzero;fill:rgb(0%,0%,0%);fill-opacity:1;" d="M 226.921875 826.867188 C 221.371094 828.214844 218.296875 831.140625 215.445312 837.660156 C 214.019531 841.035156 214.246094 853.179688 215.820312 855.429688 C 216.570312 856.480469 217.097656 857.453125 217.097656 857.679688 C 216.871094 858.730469 219.648438 861.804688 222.273438 863.453125 C 224.75 865.027344 226.097656 865.25 230.824219 865.25 C 235.625 865.25 236.976562 864.953125 239.375 863.300781 C 242.453125 861.351562 245.078125 857.980469 244.253906 857.15625 C 244.027344 856.929688 242.453125 858.128906 240.800781 859.855469 C 237.425781 863.378906 235.175781 864.425781 230.972656 864.425781 C 225.722656 864.425781 221.222656 861.351562 217.921875 855.429688 C 215.972656 851.832031 215.894531 840.511719 217.847656 836.6875 C 220.546875 831.4375 225.273438 827.691406 229.175781 827.691406 C 230.222656 827.691406 231.050781 827.316406 231.050781 826.941406 C 231.050781 826.117188 230.222656 826.117188 226.921875 826.867188 Z M 226.921875 826.867188 "/>
<path style=" stroke:none;fill-rule:nonzero;fill:rgb(0%,0%,0%);fill-opacity:1;" d="M 391.207031 826.714844 C 382.808594 827.464844 376.503906 834.960938 376.207031 844.558594 C 375.832031 857.753906 381.832031 865.175781 393.007812 865.328125 C 397.511719 865.402344 398.558594 865.175781 402.085938 863.003906 C 406.136719 860.527344 406.960938 860.527344 406.960938 863.152344 C 406.960938 863.976562 407.414062 864.800781 407.9375 865.027344 C 408.6875 865.25 408.835938 863.226562 408.6875 855.65625 L 408.460938 846.058594 L 401.9375 845.832031 C 397.511719 845.683594 395.335938 845.910156 395.335938 846.433594 C 395.335938 846.957031 397.058594 847.183594 400.210938 847.109375 C 406.4375 846.882812 407.261719 847.558594 406.511719 852.207031 C 405.613281 857.980469 404.5625 859.777344 400.8125 862.175781 C 395.484375 865.550781 389.484375 865.027344 383.933594 860.679688 C 380.332031 857.902344 379.207031 854.378906 379.207031 846.058594 C 379.207031 836.011719 381.082031 832.1875 387.609375 828.890625 C 393.160156 826.117188 402.234375 828.441406 405.460938 833.539062 C 406.289062 834.8125 407.414062 835.863281 407.9375 835.9375 C 408.539062 835.9375 408.835938 835.710938 408.6875 835.335938 C 406.960938 831.8125 406.0625 830.765625 403.363281 829.039062 C 400.0625 827.015625 396.234375 826.265625 391.207031 826.714844 Z M 391.207031 826.714844 "/>
<path style=" stroke:none;fill-rule:nonzero;fill:rgb(0%,0%,0%);fill-opacity:1;" d="M 513.636719 827.164062 C 510.710938 827.839844 505.382812 832.414062 503.507812 835.789062 C 502.984375 836.761719 502.15625 840.210938 501.707031 843.433594 C 500.882812 849.132812 500.882812 849.433594 502.984375 854.304688 C 505.007812 859.179688 508.007812 862.925781 509.882812 862.925781 C 510.335938 862.925781 510.859375 863.300781 511.007812 863.753906 C 511.835938 866.152344 522.488281 866.078125 527.511719 863.601562 C 534.863281 859.855469 538.464844 847.558594 535.164062 837.363281 C 533.890625 833.386719 527.964844 827.316406 526.164062 827.992188 C 525.636719 828.214844 525.113281 827.992188 524.960938 827.617188 C 524.585938 826.566406 517.011719 826.265625 513.636719 827.164062 Z M 524.960938 828.964844 C 529.011719 830.914062 532.464844 834.738281 532.988281 837.960938 C 533.214844 839.535156 533.664062 842.011719 534.039062 843.433594 C 534.640625 846.359375 533.441406 854.003906 531.863281 856.929688 C 529.6875 861.128906 523.988281 864.425781 518.8125 864.425781 C 514.308594 864.425781 508.308594 860.753906 506.285156 856.78125 C 504.933594 854.230469 504.632812 852.207031 504.558594 845.757812 C 504.484375 838.5625 504.707031 837.511719 506.285156 834.886719 C 508.984375 830.691406 514.011719 827.691406 518.585938 827.691406 C 520.613281 827.691406 523.460938 828.289062 524.960938 828.964844 Z M 524.960938 828.964844 "/>
<path style=" stroke:none;fill-rule:nonzero;fill:rgb(0%,0%,0%);fill-opacity:1;" d="M 723.003906 826.789062 L 720.90625 827.015625 L 720.90625 865.175781 L 732.832031 865.175781 C 740.035156 865.175781 744.984375 864.875 745.285156 864.425781 C 745.734375 863.753906 736.65625 863.300781 729.007812 863.675781 C 723.230469 863.902344 723.15625 863.828125 723.15625 854.679688 L 723.15625 846.582031 L 727.730469 846.058594 C 730.207031 845.757812 734.40625 845.757812 736.957031 846.058594 C 740.707031 846.433594 741.835938 846.285156 742.585938 845.382812 C 743.484375 844.335938 742.585938 844.183594 733.355469 844.183594 L 723.082031 844.183594 L 723.304688 836.460938 L 723.53125 828.816406 L 734.257812 828.589844 C 740.109375 828.515625 744.910156 828.066406 744.910156 827.691406 C 744.910156 827.015625 727.207031 826.339844 723.003906 826.789062 Z M 723.003906 826.789062 "/>
<path style=" stroke:none;fill-rule:nonzero;fill:rgb(0%,0%,0%);fill-opacity:1;" d="M 109.523438 828.441406 C 109.523438 829.265625 109.824219 830.539062 110.199219 831.289062 C 110.949219 832.714844 114.699219 846.957031 115.300781 850.78125 C 115.523438 852.132812 115.976562 853.40625 116.351562 853.632812 C 116.726562 853.855469 117.023438 854.980469 117.023438 856.179688 C 117.023438 857.378906 117.398438 858.578125 117.773438 858.804688 C 118.226562 859.027344 118.527344 860.152344 118.527344 861.277344 C 118.601562 866.902344 122.203125 866.449219 123.851562 860.679688 C 124.453125 858.429688 125.277344 855.953125 125.578125 855.28125 C 125.878906 854.53125 126.027344 853.554688 125.800781 853.03125 C 125.652344 852.507812 125.953125 851.230469 126.476562 850.183594 C 127.601562 848.007812 129.851562 839.761719 130.304688 835.863281 C 130.527344 834.289062 131.277344 832.863281 132.101562 832.339844 C 133.453125 831.515625 133.679688 831.664062 134.652344 833.988281 C 135.253906 835.488281 135.777344 837.8125 135.777344 839.234375 C 135.777344 840.660156 136.152344 842.085938 136.53125 842.308594 C 136.980469 842.535156 137.28125 843.585938 137.28125 844.558594 C 137.28125 845.535156 137.65625 846.582031 138.03125 846.808594 C 138.480469 847.035156 138.78125 848.082031 138.78125 849.058594 C 138.78125 850.03125 139.078125 851.605469 139.53125 852.582031 C 139.90625 853.554688 140.957031 856.78125 141.78125 859.703125 C 142.980469 863.902344 143.65625 865.175781 144.707031 865.175781 C 146.207031 865.175781 147.78125 862.328125 147.78125 859.480469 C 147.78125 858.503906 148.082031 857.078125 148.457031 856.328125 C 148.832031 855.65625 150.257812 851.308594 151.53125 846.808594 C 152.882812 842.234375 154.234375 837.886719 154.609375 837.0625 C 154.910156 836.238281 155.582031 834.214844 156.109375 832.5625 C 156.558594 830.914062 157.308594 828.964844 157.683594 828.214844 C 158.207031 827.089844 158.132812 826.867188 157.082031 827.089844 C 156.332031 827.164062 155.507812 828.140625 155.207031 829.191406 C 154.910156 830.238281 154.082031 833.089844 153.40625 835.5625 C 152.734375 838.035156 150.855469 844.109375 149.28125 849.058594 C 147.707031 854.003906 146.28125 858.730469 146.132812 859.554688 C 145.832031 861.277344 144.03125 861.578125 143.28125 859.929688 C 142.980469 859.328125 142.304688 856.929688 141.78125 854.679688 C 141.332031 852.429688 140.65625 849.730469 140.28125 848.683594 C 139.980469 847.632812 139.304688 844.785156 138.78125 842.308594 C 138.328125 839.835938 137.578125 837.210938 137.203125 836.539062 C 136.828125 835.789062 136.53125 834.214844 136.53125 833.011719 C 136.53125 831.738281 136.230469 830.539062 135.777344 830.316406 C 135.402344 830.089844 135.027344 829.191406 135.027344 828.367188 C 135.027344 827.316406 134.503906 826.941406 133.078125 826.941406 C 131.351562 826.941406 131.203125 827.164062 131.578125 828.738281 C 131.878906 829.941406 131.652344 830.691406 130.902344 830.988281 C 130.304688 831.214844 129.777344 832.1875 129.777344 833.089844 C 129.777344 834.0625 128.578125 838.636719 127.152344 843.359375 C 125.726562 848.007812 124.527344 852.507812 124.527344 853.179688 C 124.527344 855.503906 121.601562 861.578125 120.625 861.277344 C 120.101562 861.054688 118.902344 857.605469 118 853.480469 C 117.023438 849.433594 115.601562 843.660156 114.773438 840.660156 C 113.949219 837.738281 113.273438 834.664062 113.273438 833.761719 C 113.273438 832.9375 112.972656 832.039062 112.523438 831.8125 C 112.148438 831.589844 111.773438 830.390625 111.773438 829.113281 C 111.773438 827.691406 111.398438 826.941406 110.648438 826.941406 C 110.046875 826.941406 109.523438 827.617188 109.523438 828.441406 Z M 109.523438 828.441406 "/>
<path style=" stroke:none;fill-rule:nonzero;fill:rgb(0%,0%,0%);fill-opacity:1;" d="M 166.535156 846.058594 L 166.535156 865.175781 L 178.539062 865.175781 C 186.039062 865.175781 190.539062 864.875 190.539062 864.425781 C 190.539062 863.601562 189.789062 863.527344 178.761719 863.675781 C 167.886719 863.828125 167.886719 863.828125 168.261719 854.753906 C 168.410156 850.707031 168.785156 847.035156 169.085938 846.507812 C 169.535156 845.832031 172.3125 845.609375 179.136719 845.757812 C 185.816406 845.910156 188.664062 845.683594 188.890625 845.085938 C 189.117188 844.410156 186.414062 844.183594 179.0625 844.183594 C 169.835938 844.183594 168.9375 844.035156 168.5625 842.835938 C 167.886719 840.136719 168.1875 830.316406 168.9375 829.414062 C 169.460938 828.738281 172.613281 828.441406 179.738281 828.441406 C 185.964844 828.441406 189.789062 828.140625 189.789062 827.691406 C 189.789062 827.242188 185.441406 826.941406 178.164062 826.941406 L 166.535156 826.941406 Z M 166.535156 846.058594 "/>
<path style=" stroke:none;fill-rule:nonzero;fill:rgb(0%,0%,0%);fill-opacity:1;" d="M 235.402344 828.214844 C 237.425781 828.890625 239.601562 830.539062 241.328125 832.5625 C 244.328125 836.238281 246.054688 836.386719 244.027344 832.789062 C 242.226562 829.714844 237.652344 826.941406 234.648438 827.015625 L 232.175781 827.089844 Z M 235.402344 828.214844 "/>
<path style=" stroke:none;fill-rule:nonzero;fill:rgb(0%,0%,0%);fill-opacity:1;" d="M 255.878906 846.058594 C 255.804688 858.878906 256.03125 865.175781 256.554688 865.175781 C 257.003906 865.175781 257.304688 862.027344 257.304688 856.554688 C 257.304688 844.632812 256.855469 845.007812 271.332031 845.160156 L 282.4375 845.308594 L 282.660156 855.207031 C 282.8125 863.378906 283.035156 865.175781 283.9375 865.175781 C 284.910156 865.175781 285.0625 862.402344 285.0625 845.984375 C 285.0625 830.988281 284.835938 826.867188 284.160156 827.089844 C 283.484375 827.316406 283.035156 830.015625 282.8125 835.636719 L 282.4375 843.808594 L 270.882812 844.035156 C 263.082031 844.183594 259.03125 843.960938 258.355469 843.359375 C 257.605469 842.761719 257.304688 840.4375 257.304688 834.738281 C 257.304688 830.464844 257.003906 826.941406 256.707031 826.941406 C 256.328125 826.941406 255.953125 835.5625 255.878906 846.058594 Z M 255.878906 846.058594 "/>
<path style=" stroke:none;fill-rule:nonzero;fill:rgb(0%,0%,0%);fill-opacity:1;" d="M 307.191406 830.089844 C 306.515625 831.890625 305.617188 833.988281 305.242188 834.8125 C 303.890625 837.886719 298.414062 854.378906 298.039062 856.328125 C 297.8125 857.53125 297.363281 858.429688 297.0625 858.429688 C 296.3125 858.429688 294.589844 864.425781 295.1875 865.027344 C 295.863281 865.703125 296.839844 863.828125 298.339844 859.179688 C 300.515625 852.054688 300.289062 852.132812 310.265625 852.132812 L 318.96875 852.054688 L 320.769531 855.730469 C 321.742188 857.828125 322.570312 859.855469 322.570312 860.378906 C 322.570312 862.101562 324.292969 865.175781 325.269531 865.175781 C 326.46875 865.175781 325.570312 861.277344 323.09375 856.105469 C 322.042969 853.855469 319.570312 847.484375 317.691406 841.933594 C 312.890625 827.992188 312.367188 826.941406 310.265625 826.941406 C 308.917969 826.941406 308.242188 827.691406 307.191406 830.089844 Z M 313.042969 835.261719 C 314.242188 838.335938 315.894531 842.386719 316.71875 844.335938 C 319.117188 849.808594 318.59375 850.257812 310.042969 850.03125 C 301.789062 849.808594 302.238281 850.257812 304.117188 843.433594 C 305.765625 837.210938 307.117188 833.6875 307.714844 833.6875 C 308.089844 833.6875 308.316406 832.863281 308.316406 831.964844 C 308.316406 829.941406 308.992188 829.039062 310.117188 829.414062 C 310.566406 829.566406 311.84375 832.1875 313.042969 835.261719 Z M 313.042969 835.261719 "/>
<path style=" stroke:none;fill-rule:nonzero;fill:rgb(0%,0%,0%);fill-opacity:1;" d="M 335.320312 846.058594 C 335.320312 858.054688 335.621094 865.175781 336.070312 865.175781 C 336.523438 865.175781 336.898438 858.503906 336.972656 847.78125 C 337.121094 835.1875 337.421875 830.390625 338.097656 830.164062 C 338.546875 830.015625 341.097656 833.089844 343.648438 836.988281 C 346.199219 840.960938 348.523438 844.183594 348.898438 844.183594 C 349.273438 844.183594 349.574219 844.710938 349.574219 845.382812 C 349.574219 846.058594 350.175781 847.484375 350.925781 848.53125 C 353.699219 852.882812 354.152344 853.632812 355.050781 855.582031 C 355.5 856.78125 356.175781 857.679688 356.476562 857.679688 C 356.777344 857.679688 357.078125 858.203125 357.078125 858.804688 C 357.078125 859.402344 357.453125 859.929688 357.828125 859.929688 C 358.277344 859.929688 358.578125 860.453125 358.578125 861.054688 C 358.578125 861.652344 358.878906 862.175781 359.253906 862.175781 C 359.628906 862.175781 360.226562 862.851562 360.453125 863.675781 C 360.753906 864.726562 361.578125 865.175781 363.003906 865.175781 L 365.027344 865.175781 L 364.953125 846.285156 C 364.804688 833.3125 364.503906 827.316406 363.976562 827.089844 C 363.378906 826.941406 363.152344 831.664062 363.226562 843.433594 C 363.226562 853.480469 363.003906 860.304688 362.554688 860.753906 C 361.578125 861.726562 359.851562 859.480469 353.925781 849.808594 C 351.449219 845.683594 348.148438 840.511719 346.648438 838.335938 C 345.148438 836.164062 343.648438 833.839844 343.199219 833.089844 C 340.722656 828.816406 338.847656 826.941406 337.121094 826.941406 L 335.320312 826.941406 Z M 335.320312 846.058594 "/>
<path style=" stroke:none;fill-rule:nonzero;fill:rgb(0%,0%,0%);fill-opacity:1;" d="M 421.367188 827.464844 C 421.066406 827.691406 420.839844 836.3125 420.839844 846.582031 L 420.839844 865.175781 L 432.84375 865.175781 C 441.917969 865.175781 444.84375 864.953125 444.84375 864.203125 C 444.84375 863.527344 442.371094 863.378906 434.644531 863.453125 C 429.015625 863.527344 423.914062 863.378906 423.316406 863.003906 C 421.664062 862.101562 421.515625 847.558594 423.089844 846.582031 C 423.691406 846.207031 428.265625 845.910156 433.21875 845.910156 C 438.996094 845.832031 442.292969 845.535156 442.445312 845.007812 C 442.671875 844.410156 439.667969 844.183594 432.992188 844.183594 C 425.265625 844.183594 423.164062 843.960938 422.867188 843.136719 C 422.640625 842.535156 422.339844 839.3125 422.265625 835.9375 C 422.191406 831.363281 422.414062 829.640625 423.164062 829.113281 C 423.765625 828.738281 428.71875 828.441406 434.191406 828.441406 C 440.269531 828.441406 444.09375 828.140625 444.09375 827.691406 C 444.09375 826.867188 422.191406 826.640625 421.367188 827.464844 Z M 421.367188 827.464844 "/>
<path style=" stroke:none;fill-rule:nonzero;fill:rgb(0%,0%,0%);fill-opacity:1;" d="M 466.601562 827.992188 C 466.601562 828.515625 467.125 829.414062 467.726562 829.941406 C 468.324219 830.464844 468.851562 831.289062 468.851562 831.738281 C 468.851562 832.1875 470.574219 835.113281 472.601562 838.1875 C 474.625 841.261719 476.351562 844.109375 476.351562 844.410156 C 476.351562 844.785156 477.027344 846.058594 477.851562 847.257812 C 479.128906 849.058594 479.429688 850.707031 479.578125 857.003906 C 479.652344 862.402344 480.027344 864.800781 480.703125 865.027344 C 481.378906 865.25 481.601562 863.527344 481.601562 858.203125 C 481.601562 851.832031 481.828125 850.632812 483.777344 846.957031 C 484.980469 844.710938 486.628906 841.859375 487.453125 840.734375 C 489.707031 837.4375 494.054688 830.539062 495.03125 828.589844 C 496.605469 825.589844 494.054688 826.640625 492.332031 829.714844 C 491.429688 831.289062 490.003906 833.914062 489.105469 835.5625 C 488.203125 837.210938 487.003906 839.085938 486.40625 839.761719 C 485.804688 840.359375 485.355469 841.335938 485.355469 841.785156 C 485.355469 842.308594 485.054688 842.683594 484.605469 842.683594 C 484.230469 842.683594 483.855469 843.058594 483.855469 843.433594 C 483.855469 843.882812 483.328125 845.085938 482.652344 846.058594 C 481.152344 848.382812 479.578125 847.707031 478.078125 844.109375 C 477.476562 842.535156 476.652344 841.410156 476.277344 841.636719 C 475.902344 841.859375 475.601562 841.410156 475.601562 840.660156 C 475.601562 839.835938 475.300781 838.9375 474.925781 838.488281 C 474.550781 838.113281 473.578125 836.613281 472.75 835.113281 C 469.152344 828.589844 467.949219 826.941406 467.050781 826.941406 C 466.824219 826.941406 466.601562 827.390625 466.601562 827.992188 Z M 466.601562 827.992188 "/>
<path style=" stroke:none;fill-rule:nonzero;fill:rgb(0%,0%,0%);fill-opacity:1;" d="M 547.09375 828.140625 C 546.867188 828.738281 546.792969 835.414062 547.015625 842.910156 C 547.316406 856.40625 547.390625 856.628906 549.492188 859.777344 C 550.691406 861.578125 552.570312 863.527344 553.695312 864.050781 C 556.542969 865.550781 566.148438 865.625 568.996094 864.128906 C 571.546875 862.851562 574.625 859.105469 574.625 857.378906 C 574.625 856.78125 575 856.03125 575.375 855.804688 C 575.824219 855.503906 576.125 849.808594 576.125 841.109375 C 576.125 829.039062 575.972656 826.941406 575 826.941406 C 574.023438 826.941406 573.875 828.964844 573.875 840.359375 C 573.875 848.53125 573.5 854.679688 572.972656 856.253906 C 571.171875 861.726562 567.421875 864.425781 561.796875 864.425781 C 557.59375 864.425781 554.144531 862.777344 551.667969 859.480469 L 549.492188 856.703125 L 549.269531 841.785156 C 549.042969 828.140625 548.441406 824.617188 547.09375 828.140625 Z M 547.09375 828.140625 "/>
<path style=" stroke:none;fill-rule:nonzero;fill:rgb(0%,0%,0%);fill-opacity:1;" d="M 589.625 846.058594 C 589.625 857.378906 589.925781 865.175781 590.300781 865.175781 C 591.5 865.175781 591.800781 862.777344 591.5 855.65625 C 591.125 846.808594 591.5 846.433594 598.929688 846.433594 C 610.179688 846.433594 612.429688 849.058594 612.804688 863.078125 C 612.882812 864.277344 613.179688 865.175781 613.558594 865.175781 C 613.933594 865.175781 614.082031 863.078125 613.933594 860.453125 C 613.855469 857.902344 613.707031 854.679688 613.707031 853.332031 C 613.632812 851.53125 613.03125 850.257812 611.382812 848.832031 C 610.179688 847.707031 609.128906 846.582031 609.128906 846.207031 C 609.128906 845.910156 610.480469 844.335938 612.132812 842.761719 C 614.605469 840.4375 615.132812 839.386719 615.132812 837.136719 C 615.132812 833.464844 613.332031 830.238281 610.40625 828.441406 C 608.378906 827.164062 606.582031 826.941406 598.851562 826.941406 L 589.625 826.941406 Z M 610.332031 830.988281 C 612.355469 833.011719 612.882812 834.136719 612.882812 836.386719 C 612.882812 840.210938 610.40625 843.660156 606.804688 844.785156 C 602.605469 846.058594 593.828125 845.984375 592.628906 844.558594 C 591.578125 843.359375 591.203125 830.914062 592.175781 829.339844 C 592.550781 828.738281 595.101562 828.441406 600.277344 828.441406 L 607.78125 828.441406 Z M 610.332031 830.988281 "/>
<path style=" stroke:none;fill-rule:nonzero;fill:rgb(0%,0%,0%);fill-opacity:1;" d="M 641.238281 827.390625 C 640.863281 827.691406 640.636719 836.3125 640.636719 846.582031 L 640.636719 865.175781 L 652.265625 865.175781 C 659.542969 865.175781 663.890625 864.875 663.890625 864.425781 C 663.890625 863.527344 664.417969 863.601562 652.863281 863.601562 C 646.414062 863.601562 643.488281 863.300781 642.964844 862.628906 C 642.4375 862.027344 642.0625 855.054688 641.988281 844.257812 C 641.835938 834.664062 641.539062 827.089844 641.238281 827.390625 Z M 641.238281 827.390625 "/>
<path style=" stroke:none;fill-rule:nonzero;fill:rgb(0%,0%,0%);fill-opacity:1;" d="M 672.519531 827.617188 C 671.695312 828.964844 672.445312 865.175781 673.269531 865.175781 C 673.792969 865.175781 674.09375 858.652344 674.246094 846.507812 C 674.394531 829.488281 674.019531 825.292969 672.519531 827.617188 Z M 672.519531 827.617188 "/>
<path style=" stroke:none;fill-rule:nonzero;fill:rgb(0%,0%,0%);fill-opacity:1;" d="M 689.398438 846.058594 C 689.398438 857.902344 689.699219 865.175781 690.148438 865.175781 C 690.523438 865.175781 690.972656 861.277344 691.046875 855.953125 L 691.273438 846.808594 L 701.25 846.582031 C 714.003906 846.359375 714.601562 844.933594 701.851562 844.933594 C 694.800781 844.933594 692.398438 844.710938 691.722656 843.882812 C 691.125 843.210938 690.898438 840.359375 691.046875 835.863281 L 691.273438 828.816406 L 702 828.589844 C 716.777344 828.289062 715.953125 826.941406 701.027344 826.941406 L 689.398438 826.941406 Z M 689.398438 846.058594 "/>
</g>
</svg>
