<?xml version="1.0" standalone="no"?>
<!DOCTYPE svg PUBLIC "-//W3C//DTD SVG 20010904//EN"
 "http://www.w3.org/TR/2001/REC-SVG-20010904/DTD/svg10.dtd">
<svg version="1.0" xmlns="http://www.w3.org/2000/svg"
 width="1242.000000pt" height="1427.000000pt" viewBox="0 0 1242.000000 1427.000000"
 preserveAspectRatio="xMidYMid meet">

<g transform="translate(0.000000,1427.000000) scale(0.100000,-0.100000)"
fill="#000000" stroke="none">
<path d="M5835 10723 c-137 -5 -336 -35 -505 -75 -75 -17 -184 -48 -205 -58
-11 -5 -74 -30 -140 -55 -421 -161 -838 -479 -1112 -847 -98 -132 -143 -200
-198 -303 -26 -49 -51 -94 -55 -100 -24 -33 -152 -368 -165 -432 -7 -36 -7
-37 90 -66 301 -93 525 -246 835 -573 l75 -79 7 115 c16 258 79 457 216 683
132 217 345 415 582 540 125 66 244 109 400 145 102 23 137 26 310 26 167 1
210 -2 301 -22 238 -51 442 -140 619 -270 216 -160 423 -431 515 -674 10 -26
21 -45 26 -42 5 3 9 369 9 825 0 774 -1 820 -18 837 -51 51 -388 222 -527 267
-27 9 -59 20 -70 25 -57 26 -180 57 -355 91 -91 18 -188 30 -325 39 -137 9
-166 9 -310 3z"/>
<path d="M1865 8525 l-70 -13 74 -1 c40 0 103 -6 140 -12 36 -5 98 -15 136
-21 82 -13 215 -58 300 -101 292 -147 505 -352 751 -721 118 -176 248 -377
319 -489 371 -590 563 -852 780 -1070 350 -350 760 -594 1195 -708 185 -48
434 -79 640 -79 565 1 984 194 1232 568 37 57 68 108 68 113 0 18 -18 8 -43
-23 -87 -113 -191 -197 -333 -267 -150 -75 -178 -84 -426 -140 -85 -20 -292
-33 -408 -26 -234 12 -504 71 -713 154 -260 104 -473 246 -662 442 -79 82
-282 343 -430 554 -27 38 -70 97 -95 131 -25 33 -58 79 -75 103 -16 23 -52 73
-80 110 -27 38 -68 94 -90 126 -77 109 -281 381 -380 505 -185 231 -435 466
-650 609 -186 125 -427 218 -662 256 -108 18 -418 18 -518 0z"/>
<path d="M1718 8493 c7 -3 16 -2 19 1 4 3 -2 6 -13 5 -11 0 -14 -3 -6 -6z"/>
<path d="M1230 4841 c-104 -24 -178 -63 -248 -132 -136 -134 -194 -350 -143
-534 41 -146 144 -281 263 -341 114 -58 239 -73 366 -46 90 20 252 122 252
159 0 11 -32 40 -73 66 l-28 18 -45 -41 c-67 -62 -122 -82 -229 -82 -67 -1
-102 4 -137 18 -73 30 -134 78 -172 136 -52 78 -69 139 -69 243 -1 183 86 331
230 389 76 32 195 37 262 12 42 -15 108 -58 122 -79 10 -14 39 0 84 38 l40 34
-33 34 c-46 47 -112 82 -204 106 -92 25 -137 25 -238 2z"/>
<path d="M3327 4664 c-4 -4 -7 -45 -7 -91 0 -45 -1 -83 -2 -84 -2 0 -30 -2
-63 -5 -86 -7 -87 -7 -83 -61 l3 -48 70 -5 70 -5 5 -230 c6 -266 9 -278 94
-320 87 -43 226 -27 226 27 0 60 -7 66 -76 64 -109 -2 -122 28 -123 290 -1
113 2 154 12 162 7 6 49 12 92 14 l80 3 3 53 3 52 -84 0 c-57 0 -88 4 -95 13
-6 7 -12 49 -14 92 l-3 80 -50 3 c-28 2 -54 0 -58 -4z"/>
<path d="M2033 4481 c-68 -20 -143 -64 -143 -84 0 -17 52 -67 69 -67 7 0 23 8
36 19 30 23 134 45 179 38 84 -14 143 -69 135 -127 -4 -24 -7 -25 -104 -31
-55 -4 -122 -12 -150 -18 -155 -35 -233 -133 -206 -260 14 -69 55 -113 130
-142 96 -36 223 -12 295 54 16 15 32 27 37 27 4 0 10 -18 14 -41 l7 -40 46 3
47 3 3 250 c2 249 2 249 -23 301 -56 114 -209 162 -372 115z m277 -381 c16
-63 -27 -142 -94 -177 -39 -20 -150 -20 -197 0 -75 31 -72 134 5 171 53 25
111 34 201 33 76 -2 79 -3 85 -27z"/>
<path d="M2773 4491 c-54 -14 -106 -46 -137 -85 -25 -30 -31 -48 -34 -101 -8
-118 40 -166 203 -205 123 -30 164 -58 165 -112 0 -34 -50 -78 -93 -79 -33 -2
-83 -1 -103 0 -7 1 -36 17 -65 36 l-52 36 -36 -29 c-20 -16 -37 -37 -39 -45
-9 -46 137 -117 238 -117 61 0 151 23 193 49 68 42 104 134 83 215 -17 70 -95
117 -245 152 -85 19 -121 48 -121 98 0 69 99 106 181 67 24 -11 51 -26 60 -32
12 -9 24 -6 57 16 23 15 42 33 42 39 0 19 -51 63 -94 81 -45 19 -157 28 -203
16z"/>
<path d="M4076 4493 c-27 -7 -90 -48 -115 -74 -25 -27 -41 -17 -41 27 l0 35
-57 -3 -58 -3 0 -330 0 -330 57 -3 56 -3 4 208 c3 198 4 210 28 258 32 63 70
85 163 94 l72 6 3 56 c3 52 1 57 -20 63 -26 6 -63 6 -92 -1z"/>
<path d="M4536 4484 c-115 -37 -206 -124 -241 -233 -24 -72 -16 -187 16 -256
73 -158 266 -240 435 -185 267 85 338 408 131 595 -34 31 -79 61 -106 70 -68
24 -176 28 -235 9z m222 -128 c66 -41 112 -128 112 -211 0 -53 -29 -133 -62
-171 -99 -112 -305 -85 -375 50 -8 16 -18 55 -20 86 -11 120 35 211 131 257
66 31 155 27 214 -11z"/>
<path d="M3025 3241 c-74 -18 -115 -57 -153 -144 -19 -45 -16 -207 5 -237 10
-14 17 -27 17 -30 -3 -14 34 -55 69 -77 33 -21 51 -24 114 -24 64 0 82 4 114
26 41 26 76 71 65 82 -3 3 -24 -13 -46 -36 -45 -47 -75 -61 -131 -61 -70 0
-130 41 -174 120 -26 48 -27 199 -1 250 36 70 99 120 151 120 14 0 25 5 25 10
0 11 -11 11 -55 1z"/>
<path d="M5215 3243 c-112 -10 -196 -110 -200 -238 -5 -176 75 -275 224 -277
60 -1 74 2 121 31 54 33 65 33 65 -2 0 -11 6 -22 13 -25 10 -3 12 24 10 125
l-3 128 -87 3 c-59 2 -88 -1 -88 -8 0 -7 23 -10 65 -9 83 3 94 -6 84 -68 -12
-77 -26 -101 -76 -133 -71 -45 -151 -38 -225 20 -48 37 -63 84 -63 195 0 134
25 185 112 229 74 37 195 6 238 -62 11 -17 26 -31 33 -32 8 0 12 3 10 8 -23
47 -35 61 -71 84 -44 27 -95 37 -162 31z"/>
<path d="M6847 3237 c-39 -9 -110 -70 -135 -115 -7 -13 -18 -59 -24 -102 -11
-76 -11 -80 17 -145 27 -65 67 -115 92 -115 6 0 13 -5 15 -11 11 -32 153 -31
220 2 98 50 146 214 102 350 -17 53 -96 134 -120 125 -7 -3 -14 0 -16 5 -5 14
-106 18 -151 6z m151 -24 c54 -26 100 -77 107 -120 3 -21 9 -54 14 -73 8 -39
-8 -141 -29 -180 -29 -56 -105 -100 -174 -100 -60 0 -140 49 -167 102 -18 34
-22 61 -23 147 -1 96 2 110 23 145 36 56 103 96 164 96 27 0 65 -8 85 -17z"/>
<path d="M9638 3242 l-28 -3 0 -255 0 -254 159 0 c96 0 162 4 166 10 6 9 -115
15 -217 10 -77 -3 -78 -2 -78 120 l0 108 61 7 c33 4 89 4 123 0 50 -5 65 -3
75 9 12 14 0 16 -123 16 l-137 0 3 103 3 102 143 3 c78 1 142 7 142 12 0 9
-236 18 -292 12z"/>
<path d="M1460 3220 c0 -11 4 -28 9 -38 10 -19 60 -209 68 -260 3 -18 9 -35
14 -38 5 -3 9 -18 9 -34 0 -16 5 -32 10 -35 6 -3 10 -18 10 -33 1 -75 49 -69
71 8 8 30 19 63 23 72 4 10 6 23 3 30 -2 7 2 24 9 38 15 29 45 139 51 191 3
21 13 40 24 47 18 11 21 9 34 -22 8 -20 15 -51 15 -70 0 -19 5 -38 10 -41 6
-3 10 -17 10 -30 0 -13 5 -27 10 -30 6 -3 10 -17 10 -30 0 -13 4 -34 10 -47 5
-13 19 -56 30 -95 16 -56 25 -73 39 -73 20 0 41 38 41 76 0 13 4 32 9 42 5 9
24 67 41 127 18 61 36 119 41 130 4 11 13 38 20 60 6 22 16 48 21 58 7 15 6
18 -8 15 -10 -1 -21 -14 -25 -28 -4 -14 -15 -52 -24 -85 -9 -33 -34 -114 -55
-180 -21 -66 -40 -129 -42 -140 -4 -23 -28 -27 -38 -5 -4 8 -13 40 -20 70 -6
30 -15 66 -20 80 -4 14 -13 52 -20 85 -6 33 -16 68 -21 77 -5 10 -9 31 -9 47
0 17 -4 33 -10 36 -5 3 -10 15 -10 26 0 14 -7 19 -26 19 -23 0 -25 -3 -20 -24
4 -16 1 -26 -9 -30 -8 -3 -15 -16 -15 -28 0 -13 -16 -74 -35 -137 -19 -62 -35
-122 -35 -131 0 -31 -39 -112 -52 -108 -7 3 -23 49 -35 104 -13 54 -32 131
-43 171 -11 39 -20 80 -20 92 0 11 -4 23 -10 26 -5 3 -10 19 -10 36 0 19 -5
29 -15 29 -8 0 -15 -9 -15 -20z"/>
<path d="M2220 2985 l0 -255 160 0 c100 0 160 4 160 10 0 11 -10 12 -157 10
-145 -2 -145 -2 -140 119 2 54 7 103 11 110 6 9 43 12 134 10 89 -2 127 1 130
9 3 9 -33 12 -131 12 -123 0 -135 2 -140 18 -9 36 -5 167 5 179 7 9 49 13 144
13 83 0 134 4 134 10 0 6 -58 10 -155 10 l-155 0 0 -255z"/>
<path d="M3138 3223 c27 -9 56 -31 79 -58 40 -49 63 -51 36 -3 -24 41 -85 78
-125 77 l-33 -1 43 -15z"/>
<path d="M3411 2985 c-1 -171 2 -255 9 -255 6 0 10 42 10 115 0 159 -6 154
187 152 l148 -2 3 -132 c2 -109 5 -133 17 -133 13 0 15 37 15 256 0 200 -3
255 -12 252 -9 -3 -15 -39 -18 -114 l-5 -109 -154 -3 c-104 -2 -158 1 -167 9
-10 8 -14 39 -14 115 0 57 -4 104 -8 104 -5 0 -10 -115 -11 -255z"/>
<path d="M4095 3198 c-9 -24 -21 -52 -26 -63 -18 -41 -91 -261 -96 -287 -3
-16 -9 -28 -13 -28 -10 0 -33 -80 -25 -88 9 -9 22 16 42 78 29 95 26 94 159
94 l116 1 24 -49 c13 -28 24 -55 24 -62 0 -23 23 -64 36 -64 16 0 4 52 -29
121 -14 30 -47 115 -72 189 -64 186 -71 200 -99 200 -18 0 -27 -10 -41 -42z
m78 -69 c16 -41 38 -95 49 -121 32 -73 25 -79 -89 -76 -110 3 -104 -3 -79 88
22 83 40 130 48 130 5 0 8 11 8 23 0 27 9 39 24 34 6 -2 23 -37 39 -78z"/>
<path d="M4470 2985 c0 -160 4 -255 10 -255 6 0 11 89 12 232 2 168 6 232 15
235 6 2 40 -39 74 -91 34 -53 65 -96 70 -96 5 0 9 -7 9 -16 0 -9 8 -28 18 -42
37 -58 43 -68 55 -94 6 -16 15 -28 19 -28 4 0 8 -7 8 -15 0 -8 5 -15 10 -15 6
0 10 -7 10 -15 0 -8 4 -15 9 -15 5 0 13 -9 16 -20 4 -14 15 -20 34 -20 l27 0
-1 252 c-2 173 -6 253 -13 256 -8 2 -11 -61 -10 -218 0 -134 -3 -225 -9 -231
-13 -13 -36 17 -115 146 -33 55 -77 124 -97 153 -20 29 -40 60 -46 70 -33 57
-58 82 -81 82 l-24 0 0 -255z"/>
<path d="M5617 3233 c-4 -3 -7 -118 -7 -255 l0 -248 160 0 c121 0 160 3 160
13 0 9 -33 11 -136 10 -75 -1 -143 1 -151 6 -22 12 -24 206 -3 219 8 5 69 9
135 9 77 1 121 5 123 12 3 8 -37 11 -126 11 -103 0 -131 3 -135 14 -3 8 -7 51
-8 96 -1 61 2 84 12 91 8 5 74 9 147 9 81 0 132 4 132 10 0 11 -292 14 -303 3z"/>
<path d="M6220 3226 c0 -7 7 -19 15 -26 8 -7 15 -18 15 -24 0 -6 23 -45 50
-86 27 -41 50 -79 50 -83 0 -5 9 -22 20 -38 17 -24 21 -46 23 -130 1 -72 6
-104 15 -107 9 -3 12 20 12 91 0 85 3 101 29 150 16 30 38 68 49 83 30 44 88
136 101 162 21 40 -13 26 -36 -15 -12 -21 -31 -56 -43 -78 -12 -22 -28 -47
-36 -56 -8 -8 -14 -21 -14 -27 0 -7 -4 -12 -10 -12 -5 0 -10 -5 -10 -10 0 -6
-7 -22 -16 -35 -20 -31 -41 -22 -61 26 -8 21 -19 36 -24 33 -5 -3 -9 3 -9 13
0 11 -4 23 -9 29 -5 5 -18 25 -29 45 -48 87 -64 109 -76 109 -3 0 -6 -6 -6
-14z"/>
<path d="M7293 3224 c-3 -8 -4 -97 -1 -197 4 -180 5 -183 33 -225 16 -24 41
-50 56 -57 38 -20 166 -21 204 -1 34 17 75 67 75 90 0 8 5 18 10 21 6 4 10 80
10 196 0 161 -2 189 -15 189 -13 0 -15 -27 -15 -179 0 -109 -5 -191 -12 -212
-24 -73 -74 -109 -149 -109 -56 0 -102 22 -135 66 l-29 37 -3 199 c-3 182 -11
229 -29 182z"/>
<path d="M7860 2985 c0 -151 4 -255 9 -255 16 0 20 32 16 127 -5 118 0 123 99
123 150 0 180 -35 185 -222 1 -16 5 -28 10 -28 5 0 7 28 5 63 -1 34 -3 77 -3
95 -1 24 -9 41 -31 60 -16 15 -30 30 -30 35 0 4 18 25 40 46 33 31 40 45 40
75 0 49 -24 92 -63 116 -27 17 -51 20 -154 20 l-123 0 0 -255z m276 201 c27
-27 34 -42 34 -72 0 -51 -33 -97 -81 -112 -56 -17 -173 -16 -189 3 -14 16 -19
182 -6 203 5 8 39 12 108 12 l100 0 34 -34z"/>
<path d="M8548 3234 c-5 -4 -8 -119 -8 -256 l0 -248 155 0 c97 0 155 4 155 10
0 12 7 11 -147 11 -86 0 -125 4 -132 13 -7 8 -12 101 -13 245 -2 128 -6 229
-10 225z"/>
<path d="M8965 3231 c-11 -18 -1 -501 10 -501 7 0 11 87 13 249 2 227 -3 283
-23 252z"/>
<path d="M9190 2985 c0 -158 4 -255 10 -255 5 0 11 52 12 123 l3 122 133 3
c170 3 178 22 8 22 -94 0 -126 3 -135 14 -8 9 -11 47 -9 107 l3 94 143 3 c197
4 186 22 -13 22 l-155 0 0 -255z"/>
</g>
</svg>
